<svg id="svg" version="1.1" xmlns="http://www.w3.org/2000/svg" xmlns:xlink="http://www.w3.org/1999/xlink" width="400" height="400" viewBox="0, 0, 400,400"><g id="svgg"><path id="path0" d="M297.852 12.758 C 244.547 19.188,212.823 69.463,229.997 120.291 L 231.111 123.589 198.466 156.416 C 180.511 174.471,159.492 195.487,151.758 203.118 C 122.283 232.199,20.762 333.886,19.173 335.919 C -2.000 363.013,29.999 400.493,60.021 383.765 C 64.304 381.378,65.170 380.527,171.473 274.162 L 276.485 169.089 280.528 170.468 C 333.273 188.463,387.191 149.400,387.230 93.164 C 387.243 74.276,384.305 66.797,376.874 66.797 C 373.296 66.797,373.522 66.599,347.461 92.577 C 333.926 106.069,322.236 117.430,321.484 117.823 C 319.544 118.839,316.209 118.732,303.516 117.243 C 284.348 114.996,284.559 115.202,282.616 96.875 C 282.514 95.908,282.168 92.832,281.848 90.039 C 280.526 78.493,277.630 82.698,307.486 52.818 C 331.967 28.319,332.366 27.895,332.994 25.712 C 334.118 21.809,332.458 17.793,328.868 15.731 C 324.854 13.425,306.726 11.688,297.852 12.758 M317.847 19.512 C 325.806 20.683,326.513 20.947,327.142 22.996 C 327.397 23.826,324.851 26.501,302.423 48.972 C 270.959 80.498,273.841 75.503,275.977 94.795 C 278.764 119.971,279.632 120.863,304.102 123.652 C 325.087 126.044,320.076 128.798,351.179 97.786 C 380.270 68.780,378.163 70.243,379.696 77.986 C 391.156 135.875,337.959 182.499,281.574 163.983 C 276.882 162.442,276.536 162.384,274.933 162.862 C 273.433 163.309,265.051 171.544,200.646 235.844 L 128.051 308.321 110.119 290.392 C 100.257 280.532,92.188 272.321,92.188 272.147 C 92.188 271.973,124.683 239.277,164.399 199.489 C 204.115 159.702,236.810 126.764,237.055 126.295 C 237.844 124.782,237.534 122.355,235.947 117.606 C 217.844 63.454,261.459 11.215,317.847 19.512 M131.064 35.533 C 130.908 35.785,130.537 35.897,130.239 35.783 C 129.941 35.669,129.739 35.788,129.790 36.049 C 129.841 36.310,129.577 36.499,129.203 36.470 C 128.830 36.440,128.609 36.554,128.712 36.721 C 128.816 36.889,128.420 37.147,127.833 37.294 C 127.246 37.441,126.638 37.768,126.483 38.019 C 126.328 38.271,126.062 38.484,125.893 38.493 C 125.724 38.502,124.550 39.205,123.284 40.056 C 122.018 40.906,120.589 41.865,120.109 42.188 C 118.661 43.160,116.229 45.022,109.961 49.956 C 108.887 50.802,96.055 63.504,81.445 78.182 C 66.836 92.861,55.896 103.910,57.134 102.736 L 59.385 100.602 62.591 103.808 L 65.796 107.013 64.539 108.310 C 62.900 110.000,62.833 109.796,66.167 113.285 C 80.971 128.780,63.454 149.850,46.391 137.072 C 41.521 133.425,39.678 133.620,35.059 138.275 C 33.394 139.952,32.031 141.476,32.031 141.660 C 32.031 141.844,41.831 151.790,53.809 163.761 L 75.586 185.527 78.755 182.623 C 83.201 178.548,83.870 176.112,81.473 172.724 C 77.118 166.569,76.347 164.461,76.671 159.591 C 77.624 145.279,93.270 140.722,104.406 151.511 L 107.446 154.455 108.891 153.010 L 110.337 151.564 113.505 154.716 L 116.674 157.868 141.638 133.191 C 168.378 106.758,167.560 107.661,167.870 104.243 C 168.247 100.082,167.903 99.595,156.408 88.008 C 145.259 76.771,145.082 76.524,145.785 73.229 C 146.277 70.922,151.428 63.127,152.525 63.029 C 152.732 63.011,153.083 62.666,153.306 62.262 C 153.529 61.859,154.106 61.141,154.590 60.666 C 155.807 59.471,155.830 59.521,152.411 56.121 L 149.353 53.081 145.806 56.791 C 138.025 64.930,135.097 71.224,136.238 77.359 C 137.051 81.728,137.831 82.761,148.334 93.384 L 158.207 103.369 144.507 116.989 L 130.806 130.608 108.958 108.762 C 96.941 96.747,87.109 86.764,87.109 86.578 C 87.109 85.765,115.335 57.881,119.806 54.277 C 124.355 50.609,134.542 43.587,136.816 42.551 C 137.407 42.282,137.891 41.955,137.891 41.823 C 137.891 41.171,131.321 35.117,131.064 35.533 M54.531 338.230 C 61.378 343.264,63.722 347.384,62.469 352.181 C 59.796 362.423,59.601 362.742,55.273 363.993 C 43.588 367.372,44.031 367.442,38.016 361.238 C 33.000 356.065,33.014 356.120,34.947 348.945 C 37.191 340.614,37.148 340.662,44.236 338.643 C 50.734 336.791,52.480 336.721,54.531 338.230 " stroke="none" fill="#8b8b8b" fill-rule="evenodd"></path><path id="path1" d="M137.245 137.668 L 115.820 158.931 135.839 178.976 L 155.859 199.022 177.148 177.735 C 188.857 166.027,198.438 156.271,198.438 156.055 C 198.438 155.631,159.345 116.406,158.924 116.406 C 158.784 116.406,149.029 125.974,137.245 137.668 M222.556 222.952 L 201.170 244.341 271.776 314.881 C 337.572 380.614,342.543 385.490,344.734 386.442 C 349.954 388.709,355.927 388.711,361.092 386.448 C 364.769 384.837,383.794 365.921,385.767 361.914 C 388.775 355.807,388.434 348.610,384.859 342.773 C 384.025 341.412,244.665 201.563,244.142 201.563 C 244.032 201.563,234.319 211.188,222.556 222.952 " stroke="none" fill="#785b51" fill-rule="evenodd"></path><path id="path2" d="M182.734 14.866 C 182.670 15.048,181.996 15.259,181.236 15.336 C 180.476 15.413,179.629 15.615,179.354 15.785 C 179.079 15.955,178.750 15.990,178.623 15.863 C 178.496 15.736,178.152 15.831,177.859 16.075 C 177.565 16.318,177.223 16.416,177.099 16.292 C 176.975 16.167,176.407 16.251,175.839 16.477 C 175.270 16.704,174.277 17.026,173.633 17.194 C 171.038 17.869,165.382 19.569,164.648 19.894 C 164.219 20.085,162.021 20.894,159.766 21.692 C 149.218 25.424,127.366 36.090,128.318 37.042 C 128.418 37.142,129.186 36.770,130.024 36.215 L 131.548 35.206 134.907 38.639 L 138.266 42.071 139.543 41.294 C 150.838 34.418,171.192 26.888,190.398 22.479 L 191.538 22.218 187.896 18.560 C 184.489 15.139,183.010 14.081,182.734 14.866 M300.293 19.033 C 300.991 19.119,302.134 19.119,302.832 19.033 C 303.530 18.946,302.959 18.875,301.563 18.875 C 300.166 18.875,299.595 18.946,300.293 19.033 M310.456 19.033 C 311.158 19.120,312.213 19.118,312.800 19.029 C 313.387 18.940,312.813 18.869,311.523 18.871 C 310.234 18.873,309.754 18.946,310.456 19.033 M185.138 27.569 C 167.789 38.082,152.514 49.314,145.509 56.707 C 143.642 58.678,143.803 58.565,146.299 56.152 L 149.432 53.124 152.450 56.161 C 155.863 59.594,155.814 59.483,154.492 60.708 C 153.955 61.206,153.516 61.762,153.516 61.944 C 153.516 62.126,154.351 61.479,155.371 60.506 C 161.490 54.671,176.998 43.355,186.914 37.489 C 187.773 36.981,188.564 36.443,188.672 36.294 C 188.779 36.145,189.614 35.634,190.527 35.160 C 191.440 34.685,192.188 34.138,192.188 33.945 C 192.188 33.752,192.430 33.594,192.726 33.594 C 193.022 33.594,193.483 33.330,193.750 33.008 C 194.017 32.686,194.476 32.422,194.770 32.422 C 195.063 32.422,195.663 32.114,196.102 31.738 C 196.541 31.362,196.983 31.099,197.083 31.152 C 197.183 31.206,197.637 30.878,198.091 30.424 L 198.917 29.599 195.854 26.518 C 192.115 22.757,193.263 22.645,185.138 27.569 M303.796 47.155 L 280.835 70.089 266.607 55.864 C 254.679 43.940,252.451 41.542,252.831 41.035 C 253.080 40.702,252.528 41.133,251.605 41.992 C 233.936 58.437,227.139 91.259,235.947 117.606 C 237.534 122.355,237.844 124.782,237.055 126.295 C 236.810 126.764,204.115 159.702,164.399 199.489 C 124.683 239.277,92.187 271.973,92.187 272.147 C 92.187 272.321,100.257 280.532,110.119 290.392 L 128.051 308.321 200.646 235.844 C 265.051 171.544,273.433 163.309,274.933 162.862 C 276.536 162.384,276.882 162.442,281.574 163.983 C 304.383 171.473,326.241 169.215,345.597 157.367 C 350.851 154.151,360.938 145.902,360.938 144.820 C 360.938 144.590,360.333 145.090,359.595 145.931 L 358.253 147.461 344.165 133.400 L 330.077 119.339 353.222 96.098 L 376.367 72.857 351.367 97.691 C 320.038 128.812,325.079 126.043,304.102 123.652 C 286.171 121.608,283.359 120.500,279.532 113.971 C 277.564 110.613,274.039 84.387,274.972 80.040 C 275.943 75.510,276.011 75.433,302.279 49.121 C 315.953 35.425,327.054 24.219,326.949 24.220 C 326.844 24.220,316.425 34.541,303.796 47.155 M265.423 30.328 C 263.429 31.650,262.727 32.347,264.284 31.459 C 265.654 30.677,267.482 29.318,267.181 29.306 C 267.069 29.301,266.278 29.761,265.423 30.328 M260.449 33.824 C 259.214 34.806,258.203 35.695,258.203 35.800 C 258.203 35.904,259.258 35.161,260.547 34.148 C 262.613 32.525,263.145 32.024,262.793 32.034 C 262.739 32.036,261.685 32.841,260.449 33.824 M255.649 37.988 L 253.711 40.039 255.762 38.101 C 257.667 36.299,257.992 35.938,257.700 35.938 C 257.638 35.938,256.716 36.860,255.649 37.988 M136.230 42.802 C 134.770 43.594,134.859 43.924,136.328 43.164 C 136.973 42.831,137.500 42.475,137.500 42.373 C 137.500 42.121,137.458 42.136,136.230 42.802 M117.188 56.404 C 113.442 59.641,87.109 86.059,87.109 86.580 C 87.109 86.765,96.941 96.747,108.958 108.762 L 130.806 130.608 144.513 116.983 L 158.220 103.357 148.688 93.768 C 138.594 83.615,137.444 82.183,136.515 78.613 C 135.946 76.427,135.675 76.112,126.340 66.770 L 116.749 57.173 118.824 55.362 C 119.965 54.365,120.811 53.546,120.703 53.542 C 120.596 53.538,119.014 54.825,117.188 56.404 M151.205 64.212 L 150.262 65.430 151.380 64.367 C 151.995 63.783,152.419 63.235,152.323 63.149 C 152.227 63.064,151.724 63.542,151.205 64.212 M380.567 85.352 C 380.572 86.211,380.652 86.517,380.745 86.031 C 380.838 85.545,380.835 84.842,380.737 84.468 C 380.639 84.095,380.563 84.492,380.567 85.352 M381.010 93.359 C 381.010 96.045,381.072 97.144,381.149 95.801 C 381.225 94.458,381.225 92.261,381.149 90.918 C 381.072 89.575,381.010 90.674,381.010 93.359 M380.559 101.172 C 380.559 101.924,380.640 102.231,380.738 101.855 C 380.836 101.479,380.836 100.864,380.738 100.488 C 380.640 100.112,380.559 100.420,380.559 101.172 M372.934 127.162 C 372.140 128.766,371.575 130.078,371.678 130.078 C 371.939 130.078,374.692 124.562,374.518 124.388 C 374.440 124.310,373.727 125.558,372.934 127.162 M370.656 131.348 C 370.400 131.831,369.936 132.666,369.625 133.203 C 369.081 134.140,369.085 134.148,369.715 133.398 C 370.494 132.473,371.586 130.469,371.313 130.469 C 371.207 130.469,370.912 130.864,370.656 131.348 M363.250 141.895 C 362.094 143.237,361.457 144.090,361.836 143.790 C 362.631 143.159,365.783 139.453,365.525 139.453 C 365.429 139.453,364.406 140.552,363.250 141.895 M196.088 249.512 L 191.211 254.492 196.191 249.615 C 200.818 245.085,201.349 244.531,201.068 244.531 C 201.011 244.531,198.770 246.772,196.088 249.512 " stroke="none" fill="#9c9c9c" fill-rule="evenodd"></path><path id="path3" d="M195.313 11.972 C 187.430 13.525,182.404 14.742,183.601 14.810 C 183.928 14.829,185.847 16.503,187.867 18.531 L 191.538 22.218 190.398 22.479 C 161.937 29.013,137.395 40.104,120.369 54.128 L 116.714 57.138 126.228 66.661 L 135.742 76.184 135.986 73.274 C 136.932 61.999,153.038 47.021,185.138 27.569 C 193.267 22.642,192.110 22.751,195.893 26.557 C 198.882 29.564,198.966 29.698,198.227 30.283 C 197.529 30.837,200.273 29.518,202.148 28.398 C 211.961 22.540,206.635 9.743,195.313 11.972 M299.923 19.157 C 282.869 20.570,266.760 27.661,254.939 38.958 L 252.261 41.517 266.547 55.803 L 280.833 70.089 303.893 47.060 C 327.077 23.908,327.520 23.410,326.270 21.938 C 324.598 19.970,309.432 18.369,299.923 19.157 M353.221 96.193 L 330.077 119.339 344.155 133.400 L 358.232 147.461 360.386 145.117 C 374.573 129.680,381.321 111.811,380.745 91.211 C 380.443 80.431,378.938 73.047,377.041 73.047 C 376.668 73.047,365.984 83.429,353.221 96.193 " stroke="none" fill="#a4a4a4" fill-rule="evenodd"></path><path id="path4" d="M56.949 103.031 C 53.586 106.411,53.565 106.440,53.158 108.250 C 52.384 111.694,53.129 113.325,57.587 117.949 C 62.698 123.250,63.437 125.055,61.860 128.378 C 60.177 131.927,55.618 132.111,51.449 128.798 C 46.260 124.676,39.893 123.768,34.480 126.379 C 31.652 127.743,15.203 143.753,14.025 146.289 C 11.519 151.680,11.236 151.307,38.758 178.761 C 70.170 210.094,66.497 208.833,81.668 193.485 C 90.687 184.360,91.481 183.265,92.253 178.884 C 92.986 174.722,91.494 169.312,88.824 166.451 C 85.150 162.513,85.207 158.153,88.966 155.620 C 91.676 153.794,94.188 154.689,98.702 159.088 C 103.266 163.535,107.084 165.142,110.033 163.857 C 110.423 163.687,110.848 163.567,110.976 163.590 C 111.271 163.644,114.778 160.227,119.336 155.446 L 122.852 151.758 119.718 154.786 L 116.584 157.813 113.480 154.691 L 110.377 151.570 108.905 153.007 L 107.434 154.444 104.400 151.505 C 93.269 140.722,77.624 145.284,76.671 159.591 C 76.347 164.461,77.118 166.569,81.473 172.724 C 83.870 176.112,83.201 178.548,78.755 182.623 L 75.586 185.527 53.809 163.761 C 41.831 151.790,32.031 141.844,32.031 141.660 C 32.031 141.476,33.394 139.952,35.059 138.275 C 39.678 133.620,41.521 133.425,46.391 137.072 C 63.454 149.850,80.971 128.780,66.167 113.285 C 62.834 109.797,62.901 110.000,64.536 108.313 L 65.790 107.019 62.689 103.900 C 59.005 100.194,59.671 100.295,56.949 103.031 M155.654 119.238 L 152.930 122.070 155.762 119.346 C 158.392 116.816,158.772 116.406,158.486 116.406 C 158.426 116.406,157.152 117.681,155.654 119.238 M150.568 124.316 L 149.023 125.977 150.684 124.432 C 152.228 122.996,152.523 122.656,152.228 122.656 C 152.164 122.656,151.417 123.403,150.568 124.316 M225.776 128.809 L 220.508 134.180 225.879 128.912 C 228.833 126.014,231.250 123.597,231.250 123.541 C 231.250 123.261,230.669 123.819,225.776 128.809 M218.921 135.645 L 217.773 136.914 219.043 135.767 C 219.741 135.136,220.313 134.564,220.313 134.497 C 220.313 134.195,219.990 134.461,218.921 135.645 M260.154 185.449 L 243.945 201.758 260.254 185.549 C 275.412 170.483,276.738 169.141,276.463 169.141 C 276.408 169.141,269.070 176.479,260.154 185.449 M160.742 194.141 C 158.171 196.719,156.155 198.828,156.262 198.828 C 156.370 198.828,158.561 196.719,161.133 194.141 C 163.704 191.563,165.720 189.453,165.613 189.453 C 165.505 189.453,163.314 191.563,160.742 194.141 M146.481 208.105 L 137.305 217.383 146.582 208.206 C 155.203 199.679,156.035 198.828,155.759 198.828 C 155.703 198.828,151.528 203.003,146.481 208.105 M83.398 271.094 C 75.022 279.473,68.256 286.328,68.363 286.328 C 68.471 286.328,75.412 279.473,83.789 271.094 C 92.166 262.715,98.932 255.859,98.824 255.859 C 98.717 255.859,91.775 262.715,83.398 271.094 M128.704 316.895 L 124.805 320.898 128.809 317.000 C 131.011 314.855,132.813 313.053,132.813 312.996 C 132.813 312.713,132.325 313.176,128.704 316.895 M122.446 323.145 L 120.508 325.195 122.559 323.257 C 123.687 322.191,124.609 321.268,124.609 321.206 C 124.609 320.915,124.247 321.239,122.446 323.145 M117.567 328.027 L 115.039 330.664 117.676 328.136 C 119.126 326.746,120.313 325.559,120.313 325.500 C 120.313 325.212,119.915 325.578,117.567 328.027 M85.545 360.059 L 67.383 378.320 85.645 360.158 C 95.688 350.168,103.906 341.951,103.906 341.896 C 103.906 341.621,102.427 343.085,85.545 360.059 " stroke="none" fill="#6c6c6b" fill-rule="evenodd"></path></g></svg>